<?xml version="1.0" standalone="no"?><!DOCTYPE svg PUBLIC "-//W3C//DTD SVG 1.1//EN" "http://www.w3.org/Graphics/SVG/1.1/DTD/svg11.dtd"><svg t="1774776621623" class="icon" viewBox="0 0 1024 1024" version="1.1" xmlns="http://www.w3.org/2000/svg" p-id="1755" xmlns:xlink="http://www.w3.org/1999/xlink" width="200" height="200"><path d="M452.86592 236.384l5.44-4.8a55.52 55.52 0 0 0 17.856-60.608 56.192 56.192 0 0 0-49.824-39.232l-97.92-6.656-36.576-91.072C283.55392 13.312 263.04192 0 239.39392 0c-23.616 0-44.16 13.376-52.288 33.92L150.52992 125.12l-98.304 6.624a55.68 55.68 0 0 0-49.28 38.624 56.288 56.288 0 0 0 17.376 61.184l75.328 62.912-24.096 95.552a56.8 56.8 0 0 0 21.376 59.2c18.08 13.28 42.528 15.04 63.456 2.304l83.072-52.352 83.456 52.48c19.136 11.872 46.08 10.304 62.496-2.08a56 56 0 0 0 20.8-28.32c166.976 167.84 253.632 523.04 254.592 527.04a32 32 0 0 0 55.104 13.792c25.568-28.896 40.128-77.344 48.416-120.576l110.624 168.096a32 32 0 0 0 58.464-13.44c12.352-94.72 4.8-178.336-5.696-237.92l44.576 34.944a32 32 0 0 0 50.784-32.96c-4.096-16.32-102.304-387.36-570.208-523.84z m441.152 414.08a32 32 0 0 0-49.792 36.16c0.384 1.056 31.104 86.624 31.552 207.808l-106.144-161.248a32.032 32.032 0 0 0-58.72 16.288 571.68 571.68 0 0 1-12.704 95.488c-45.248-145.856-152.64-429.664-327.872-533.12a32 32 0 0 0-46.176 38.944l13.056 34.24-80.736-50.752a32.032 32.032 0 0 0-34.112 0L138.27392 387.296l24.384-96.672a32.032 32.032 0 0 0-10.528-32.416L75.55392 194.304l99.328-6.72a31.936 31.936 0 0 0 27.52-20l37.056-92.256L276.51392 167.584c4.576 11.392 15.264 19.168 27.52 20l99.808 6.752-38.24 33.824a32 32 0 0 0 13.92 55.136c320.64 74.912 470.72 263.136 536.16 384.128l-21.664-16.96z" fill="#5465CF" p-id="1756"></path></svg>